HIERARCHY
ROOT Hips
{
	OFFSET -278.121490 93.318451 465.951996
	CHANNELS 6 Xposition Yposition Zposition Zrotation Yrotation Xrotation 
	JOINT LeftUpLeg
	{
		OFFSET 0.103457 1.857822 10.548516
		CHANNELS 3 Zrotation Yrotation Xrotation
		JOINT LeftLeg
		{
			OFFSET 43.500008 -0.000031 0.000015
			CHANNELS 3 Zrotation Yrotation Xrotation
			JOINT LeftFoot
			{
				OFFSET 42.372192 0.000027 -0.000009
				CHANNELS 3 Zrotation Yrotation Xrotation
				JOINT LeftToe
				{
					OFFSET 17.299999 0.000000 -0.000004
					CHANNELS 3 Zrotation Yrotation Xrotation
					End Site
					{
						OFFSET 0.000000 0.000000 0.000000
					}
				}
			}
		}
	}
	JOINT RightUpLeg
	{
		OFFSET 0.103460 1.857822 -10.548513
		CHANNELS 3 Zrotation Yrotation Xrotation
		JOINT RightLeg
		{
			OFFSET 43.500038 -0.000015 -0.000002
			CHANNELS 3 Zrotation Yrotation Xrotation
			JOINT RightFoot
			{
				OFFSET 42.372269 -0.000019 0.000014
				CHANNELS 3 Zrotation Yrotation Xrotation
				JOINT RightToe
				{
					OFFSET 17.300005 -0.000001 0.000011
					CHANNELS 3 Zrotation Yrotation Xrotation
					End Site
					{
						OFFSET 0.000000 0.000000 0.000000
					}
				}
			}
		}
	}
	JOINT Spine
	{
		OFFSET 6.901966 -2.603743 -0.000003
		CHANNELS 3 Zrotation Yrotation Xrotation
		JOINT Spine1
		{
			OFFSET 12.588103 0.000012 0.000008
			CHANNELS 3 Zrotation Yrotation Xrotation
			JOINT Spine2
			{
				OFFSET 12.343199 0.000004 0.000007
				CHANNELS 3 Zrotation Yrotation Xrotation
				JOINT Neck
				{
					OFFSET 25.832901 -0.000008 -0.000001
					CHANNELS 3 Zrotation Yrotation Xrotation
					JOINT Head
					{
						OFFSET 11.766611 0.000029 -0.000004
						CHANNELS 3 Zrotation Yrotation Xrotation
						End Site
						{
							OFFSET 0.000000 0.000000 0.000000
						}
					}
				}
				JOINT LeftShoulder
				{
					OFFSET 19.745907 -1.480370 6.000077
					CHANNELS 3 Zrotation Yrotation Xrotation
					JOINT LeftArm
					{
						OFFSET 11.284128 -0.000004 -0.000015
						CHANNELS 3 Zrotation Yrotation Xrotation
						JOINT LeftForeArm
						{
							OFFSET 33.000065 0.000010 0.000016
							CHANNELS 3 Zrotation Yrotation Xrotation
							JOINT LeftHand
							{
								OFFSET 25.200001 0.000010 0.000006
								CHANNELS 3 Zrotation Yrotation Xrotation
								End Site
								{
									OFFSET 0.000000 0.000000 0.000000
								}
							}
						}
					}
				}
				JOINT RightShoulder
				{
					OFFSET 19.746094 -1.480385 -6.000086
					CHANNELS 3 Zrotation Yrotation Xrotation
					JOINT RightArm
					{
						OFFSET 11.284142 -0.000011 -0.000013
						CHANNELS 3 Zrotation Yrotation Xrotation
						JOINT RightForeArm
						{
							OFFSET 33.000092 0.000004 0.000015
							CHANNELS 3 Zrotation Yrotation Xrotation
							JOINT RightHand
							{
								OFFSET 25.199759 0.000141 0.000412
								CHANNELS 3 Zrotation Yrotation Xrotation
								End Site
								{
									OFFSET 0.000000 0.000000 0.000000
								}
							}
						}
					}
				}
			}
		}
	}
}
MOTION
Frames: 11
Frame Time: 0.033333
-223.994003 92.514153 562.411926 88.602368 -6.756464 -138.874999 -175.249964 0.654497 165.681852 -9.607291 -2.378042 -9.270998 79.554929 4.947666 -6.530806 21.454553 0.003094 0.000001 -177.396296 19.608401 -149.421808 -20.588994 -1.416136 13.140671 75.326523 -4.179190 18.291083 21.454555 -0.003106 -0.000017 6.112869 0.092363 1.724729 2.215200 0.152580 3.450872 1.897744 0.173544 3.449887 11.204481 1.694575 7.340744 -36.367708 -17.283162 17.829985 -150.436774 -81.473249 -31.521009 -28.983836 64.211100 26.035776 -27.413154 -15.344739 1.204127 0.719829 -2.313598 10.235443 153.654763 73.574600 -25.581487 -11.046960 -36.136161 -57.002990 -25.602237 12.499617 -1.017412 19.682621 -8.300738 -47.571455 
-224.991302 92.187210 560.282898 87.533737 -7.461639 -136.483039 -175.026712 3.371701 169.770321 -9.039050 -2.482702 -10.360950 80.503936 5.962219 -5.541600 21.454553 0.003098 0.000001 -177.405571 22.621399 -148.858181 -22.938227 -1.909216 13.593597 74.360625 -3.783691 20.282399 21.454557 -0.003111 -0.000017 5.949585 -0.298346 1.583767 1.877772 -0.621502 3.162699 1.560200 -0.602257 3.166394 11.304577 -0.493183 6.949493 -36.360140 -17.634877 17.448379 -151.659132 -81.274538 -30.287986 -29.826022 63.701179 23.289101 -31.817675 -16.274119 1.347896 0.451353 -4.279019 7.731622 160.552407 74.189419 -18.504579 -5.080728 -41.601231 -47.414651 -23.576411 12.909094 -1.012695 10.329713 -1.719600 -31.670798 
-225.941299 91.792847 558.070374 86.862972 -8.341612 -134.644038 -173.920016 5.721293 172.634548 -8.237842 -2.847084 -10.797359 81.382879 6.557345 -4.306985 21.454557 0.003069 -0.000003 -177.816735 25.599902 -150.394946 -26.446586 -2.422210 14.601461 72.732553 -3.791362 21.732139 21.454567 -0.003106 -0.000016 5.899086 -0.611206 1.464881 1.769565 -1.243956 2.920760 1.451850 -1.226170 2.928209 11.335322 -2.882688 6.733750 -35.629907 -17.867126 17.022119 -152.103901 -80.729769 -29.851735 -30.537933 63.368487 22.454843 -36.036563 -17.479731 1.519689 -0.257992 -6.479013 7.165341 166.112086 74.606108 -12.804016 1.033478 -46.357959 -41.798736 -23.296609 12.799413 -1.001635 6.078656 -1.369054 -9.153120 
-226.842407 91.371918 555.993713 86.180294 -8.852590 -133.032961 -173.219225 7.662595 174.202336 -7.951730 -3.108791 -10.670293 82.369752 6.745243 -3.058444 21.454553 0.003093 -0.000001 -179.286810 28.164094 -153.892809 -30.802142 -2.787282 15.910512 70.471979 -4.283852 21.876534 21.454560 -0.003109 -0.000018 5.800302 -0.830478 1.310423 1.568836 -1.677929 2.610229 1.250951 -1.662004 2.620311 11.149407 -5.199453 6.671099 -33.920222 -17.996761 16.497004 -152.128626 -79.433604 -29.860829 -31.245124 62.550128 22.963731 -39.362807 -18.238910 1.652190 -1.435331 -8.806685 8.504933 169.276594 74.456719 -9.573327 7.632158 -50.521741 -40.313433 -24.347437 13.535022 -1.064167 3.875621 -4.944679 8.330982 
-227.544296 90.936241 554.046326 85.793378 -9.484132 -131.103992 -172.672728 9.069902 175.239500 -8.896315 -3.517108 -10.072609 83.812357 6.584307 -1.839192 21.454557 0.003099 0.000001 179.301222 30.250399 -157.737823 -35.761515 -3.198855 16.461109 68.087034 -5.190908 19.162806 21.454562 -0.003108 -0.000016 5.805438 -1.035858 1.026296 1.579703 -2.085075 2.039332 1.261627 -2.072585 2.051873 11.077425 -6.204949 6.725964 -32.364605 -18.801214 16.585123 -152.159444 -78.117126 -29.864323 -32.376265 61.664123 23.421101 -41.321425 -18.419598 1.716560 -2.796359 -11.540109 9.821164 171.830689 74.376976 -6.961968 13.372587 -55.080520 -41.432908 -25.317916 14.826380 -1.161677 5.218230 -3.798172 12.907528 
-228.014206 90.693916 552.243591 85.930774 -9.904420 -128.859005 -171.647339 9.637402 175.928925 -9.505831 -3.934350 -9.085507 84.841502 6.142661 -0.658091 21.454553 0.003103 0.000001 178.265519 31.241695 -162.537930 -41.562340 -3.943049 13.306877 67.646870 -4.445588 14.404633 21.454551 -0.003108 -0.000021 5.892690 -1.157217 0.607006 1.760742 -2.323241 1.197254 1.442437 -2.315828 1.211259 11.055415 -6.273607 6.906059 -31.514011 -19.546816 16.977202 -152.623528 -77.549326 -29.406406 -33.419805 61.321937 23.742436 -41.836432 -18.478851 1.734686 -3.393876 -12.988238 9.915853 174.222608 74.075403 -4.521589 15.919132 -59.286322 -44.717095 -24.139523 14.867988 -1.145970 7.400461 3.366064 13.459041 
-228.174194 90.530060 550.751221 86.361014 -10.036060 -127.014048 -170.999209 9.683589 176.624826 -10.654949 -3.987405 -8.427593 85.646003 5.784345 -0.099269 21.454551 0.003092 0.000001 176.801277 30.467698 -170.160462 -48.274356 -4.505958 6.998897 69.486882 -0.861960 11.935054 21.454550 -0.003104 -0.000018 5.970063 -1.199422 0.218490 1.923306 -2.402248 0.417778 1.604921 -2.399547 0.432280 11.015025 -5.807843 7.183226 -30.391774 -20.114600 17.346826 -154.446587 -77.504827 -27.549126 -33.704771 61.201937 25.032544 -41.267364 -18.209694 1.701341 -3.222417 -13.581036 9.545083 174.570319 73.984916 -4.167784 16.774767 -63.352060 -48.780876 -22.173116 13.904086 -1.056449 11.359864 14.467246 14.931552 
-228.159500 90.539932 549.332214 86.927298 -9.836219 -125.834966 -170.550889 9.524092 177.041194 -11.729638 -3.743308 -8.046326 86.070035 5.538128 0.067152 21.454555 0.003094 0.000001 174.861121 27.993109 -179.852323 -54.329821 -3.576403 1.159869 70.785226 2.932003 11.006153 21.454555 -0.003102 -0.000016 5.943876 -1.174750 -0.047295 1.876501 -2.348643 -0.112995 1.558094 -2.349147 -0.098798 11.459405 -5.169154 7.533373 -29.208327 -20.551810 17.743389 -156.480686 -77.880897 -25.467778 -33.215616 61.434068 27.455562 -39.817134 -17.437592 1.611920 -2.200375 -13.172162 7.920940 172.785891 73.775114 -6.002313 17.485030 -66.297668 -53.120236 -21.361417 13.792491 -1.038592 16.085066 19.461200 10.630058 
-228.008499 90.625923 547.894775 87.791324 -9.665573 -125.239988 -169.665205 9.074796 177.134153 -12.351300 -3.649407 -7.754499 86.230462 5.357306 0.199118 21.454550 0.003104 0.000001 173.179761 24.230897 172.591736 -59.061943 -3.355128 -2.642861 70.148932 6.179439 12.176977 21.454553 -0.003111 -0.000018 5.986959 -1.100224 -0.196987 1.965357 -2.197115 -0.412081 1.647025 -2.199418 -0.398806 11.298564 -4.166534 7.957019 -27.597637 -21.179020 18.186723 -156.428476 -78.363279 -25.511402 -33.136516 61.726298 29.617186 -37.944955 -16.151352 1.480188 -1.849883 -10.471869 8.461647 171.428883 73.532908 -7.400524 16.237667 -67.544594 -53.860454 -22.025084 12.870971 -0.988602 19.768381 14.425991 14.763196 
-228.035507 90.855148 546.321228 88.598543 -9.593119 -124.188972 -168.360202 8.779999 177.868043 -12.199783 -3.580057 -7.550416 85.895824 5.286817 0.508158 21.454551 0.003093 0.000002 171.889169 20.646607 169.027251 -62.477748 -3.621613 -2.988456 67.075647 7.307673 13.456757 21.454555 -0.003107 -0.000015 6.075131 -1.034228 -0.402633 2.145179 -2.061085 -0.823959 1.826885 -2.065884 -0.811484 11.174557 -2.878360 8.247375 -26.788048 -22.023609 18.783406 -157.655478 -78.996718 -24.250703 -32.157521 62.061134 32.069244 -36.571415 -15.123751 1.379929 -1.575649 -5.731462 11.108980 171.559394 73.608232 -7.264277 14.612669 -67.969535 -52.665533 -23.168883 12.823045 -1.001318 20.111962 5.695118 23.172925 
-228.119995 90.985168 544.770081 89.215132 -9.457916 -123.284068 -167.312341 8.462095 178.281885 -12.202444 -3.781958 -7.224223 85.713963 5.161365 0.947213 21.454551 0.003096 0.000001 170.338511 17.395297 167.357420 -64.866819 -3.611762 -0.512188 67.034980 5.670143 13.937054 21.454553 -0.003107 -0.000017 6.157816 -0.985385 -0.546336 2.312622 -1.959991 -1.111907 1.994371 -1.966540 -1.100040 11.149035 -1.241043 8.574605 -27.151416 -22.848043 19.716249 -159.786757 -79.619597 -22.073314 -30.251714 62.308203 35.129924 -35.626417 -14.539301 1.319765 -0.924345 -0.406838 14.513510 173.621004 73.393395 -5.157419 11.951466 -66.907208 -50.322450 -24.544712 13.278779 -1.050789 18.393008 2.133067 21.037816 
